<svg xmlns="http://www.w3.org/2000/svg" xmlns:xlink="http://www.w3.org/1999/xlink" width="500" zoomAndPan="magnify" viewBox="0 0 375 374.999991" height="500" preserveAspectRatio="xMidYMid meet" version="1.2"><defs><clipPath id="6b40c74a73"><path d="M 60.714844 40.453125 L 314 40.453125 L 314 287 L 60.714844 287 Z M 60.714844 40.453125 "/></clipPath><clipPath id="b91e70c5df"><path d="M 173 40.453125 L 272 40.453125 L 272 98 L 173 98 Z M 173 40.453125 "/></clipPath></defs><g id="24e626ce09"><rect x="0" width="375" y="0" height="374.999991" style="fill:#ffffff;fill-opacity:1;stroke:none;"/><rect x="0" width="375" y="0" height="374.999991" style="fill:#ffffff;fill-opacity:1;stroke:none;"/><g clip-rule="nonzero" clip-path="url(#6b40c74a73)"><path style=" stroke:none;fill-rule:evenodd;fill:#231f20;fill-opacity:1;" d="M 242.996094 98.953125 C 243.367188 98.882812 243.738281 98.800781 244.105469 98.714844 C 246.472656 98.148438 249.753906 96.867188 251.882812 98.5 C 253.535156 97.851562 255.289062 97.707031 256.78125 98.960938 C 257.484375 99.550781 257.867188 100.234375 258.113281 101.023438 C 258.140625 101.003906 258.164062 100.988281 258.191406 100.96875 C 258.839844 100.515625 259.550781 100.214844 260.308594 100.066406 C 260.476562 99.882812 260.648438 99.707031 260.878906 99.519531 C 262.554688 98.179688 264.507812 98.296875 266.363281 99.0625 C 267.203125 98.488281 268.105469 97.925781 269.035156 97.6875 C 270.628906 97.277344 272.148438 97.023438 273.730469 97.679688 C 274.328125 97.925781 274.804688 98.273438 275.292969 98.613281 C 276.160156 97.640625 276.972656 96.847656 278.375 96.480469 C 280.398438 95.945312 282.222656 96.792969 283.640625 98.214844 C 284.257812 98.835938 284.730469 99.527344 285.109375 100.3125 C 285.175781 100.449219 285.238281 100.601562 285.300781 100.75 C 285.648438 100.742188 286.039062 100.707031 286.324219 100.695312 C 288.3125 100.609375 290.300781 100.753906 291.789062 102.277344 C 292.269531 102.765625 292.621094 103.339844 292.84375 103.960938 C 293.851562 104.308594 295.527344 104.628906 296.226562 104.769531 C 298.710938 105.269531 302.726562 105.75 304.320312 107.886719 L 305.042969 108.855469 L 304.605469 142.707031 C 304.613281 142.726562 304.625 142.742188 304.636719 142.757812 C 304.664062 142.765625 304.691406 142.773438 304.71875 142.78125 C 306.53125 143.292969 307.71875 143.820312 308.957031 145.347656 C 310.417969 147.144531 309.996094 149.578125 309.996094 151.707031 C 309.996094 152.386719 310.289062 152.859375 310.578125 153.457031 C 311.238281 154.828125 311.609375 156.054688 311.609375 157.597656 C 311.609375 158.203125 311.480469 158.679688 311.355469 159.152344 C 312.097656 160.121094 312.441406 161.230469 312.542969 162.554688 C 313.898438 165.34375 314.222656 168.089844 313.179688 171.148438 C 312.578125 172.917969 311.285156 174.933594 311.285156 176.800781 C 311.285156 177.152344 311.445312 177.5625 311.503906 177.917969 C 311.742188 179.335938 311.375 180.550781 310.738281 181.804688 C 310.324219 182.613281 309.824219 183.316406 309.277344 184.035156 C 309.195312 184.144531 309.082031 184.285156 308.96875 184.4375 C 310.824219 186.828125 310.96875 190.445312 309.171875 192.910156 C 308.757812 193.5 308.203125 194.070312 307.808594 194.636719 C 308.089844 194.859375 308.363281 195.101562 308.660156 195.433594 C 309.507812 196.382812 309.933594 197.636719 309.734375 198.90625 C 309.335938 201.472656 306.925781 202.574219 304.683594 203.0625 C 303.636719 203.289062 302.25 203.488281 301.183594 203.371094 C 300.628906 203.308594 300.105469 203.1875 299.570312 203.050781 C 299.179688 203.558594 298.816406 204.007812 298.25 204.441406 C 297.359375 205.128906 296.21875 205.550781 295.183594 205.972656 C 294.972656 206.054688 294.683594 206.164062 294.417969 206.28125 C 294.417969 206.28125 294.417969 206.289062 294.417969 206.289062 C 294.125 207.496094 294.019531 208.578125 293.5625 209.777344 C 292.65625 212.160156 290.359375 212.425781 288.222656 212.6875 C 288.058594 212.707031 287.84375 212.726562 287.644531 212.761719 C 285.988281 214.488281 283.765625 217.042969 281.574219 217.421875 C 280.605469 217.589844 279.648438 217.699219 278.671875 217.808594 C 278.445312 217.832031 277.992188 217.867188 277.757812 217.933594 C 277.382812 218.214844 276.640625 219.300781 276.394531 219.65625 C 274.296875 222.691406 270.820312 224.429688 267.328125 225.351562 C 265.027344 226.378906 261.257812 227.496094 259.902344 229.527344 C 259.519531 230.105469 259.066406 230.636719 258.5625 231.117188 C 257.523438 232.105469 256.320312 232.832031 255.050781 233.476562 C 254.492188 233.761719 251.726562 234.996094 251.488281 235.535156 C 251.019531 236.589844 250.753906 237.726562 250.253906 238.753906 C 249.4375 240.433594 248.144531 241.535156 246.636719 242.582031 C 246.164062 242.910156 246.070312 244.007812 246.070312 244.5 L 246.070312 244.71875 L 246.042969 244.9375 C 245.914062 245.992188 245.730469 247.035156 245.523438 248.070312 C 244.75 251.941406 243.171875 256.734375 243.453125 260.652344 C 243.585938 262.472656 244.121094 264.066406 245.140625 265.589844 C 246.523438 267.640625 247.289062 271.226562 247.59375 273.660156 C 248.011719 276.984375 248.09375 281.71875 245.296875 284.089844 C 243.820312 285.335938 242.59375 285.128906 240.960938 285.015625 C 239.015625 286.089844 236.941406 287.070312 234.65625 286.667969 C 232.585938 286.304688 231.09375 284.957031 229.890625 283.3125 C 229.789062 283.167969 229.699219 283.078125 229.53125 283.019531 C 228.828125 282.773438 227.242188 282.992188 226.507812 283.074219 C 223.601562 283.402344 220.851562 283.566406 218.347656 281.757812 C 217.273438 280.980469 216.351562 280.03125 215.3125 279.277344 C 214.441406 278.648438 213.59375 278.558594 212.527344 278.558594 L 211.882812 278.558594 L 211.273438 278.328125 C 208.972656 277.460938 208.214844 277.296875 207.296875 275.117188 C 207.128906 275.117188 206.953125 275.105469 206.757812 275.082031 C 205.320312 274.898438 204.132812 274.152344 203.230469 273.035156 C 201.824219 271.289062 200.992188 268.679688 200.992188 266.445312 L 200.992188 266.398438 C 200.957031 266.359375 200.917969 266.320312 200.882812 266.285156 C 199.167969 264.554688 198.292969 263.164062 198.253906 260.652344 C 198.097656 259.695312 197.414062 257.375 196.96875 256.230469 L 196.707031 255.714844 C 196.40625 255.128906 195.820312 254.507812 195.460938 253.875 C 194.890625 252.871094 194.59375 251.800781 194.59375 250.640625 C 194.59375 249.605469 194.78125 248.847656 195.152344 248.113281 C 194.511719 247.539062 193.542969 246.769531 192.902344 246.339844 L 191.664062 246.339844 L 190.636719 244.566406 C 189.675781 242.90625 187.050781 236.5625 185.695312 235.21875 C 180.179688 234.316406 178.503906 229.160156 178.503906 224.164062 C 178.503906 223.816406 178.433594 223.625 178.234375 223.339844 C 177.582031 222.40625 176.558594 221.542969 175.824219 220.574219 C 174.335938 218.609375 173.664062 216.464844 173.664062 213.996094 C 173.664062 213.617188 173.691406 213.058594 173.675781 212.589844 C 173.425781 212.40625 173.140625 212.222656 172.933594 212.078125 C 171.734375 211.242188 170.824219 209.652344 170.101562 208.398438 C 169.757812 207.800781 169.359375 207 168.964844 206.40625 L 168.894531 206.339844 C 168.039062 205.476562 166.726562 203.667969 165.742188 202.820312 C 163.382812 202.660156 161.324219 201.960938 160.542969 199.417969 C 160.449219 199.109375 160.296875 198.527344 160.128906 197.988281 C 157.910156 198.964844 156.175781 199.546875 154.003906 197.613281 C 151.222656 197.695312 148.414062 197.957031 145.644531 197.597656 C 145.480469 197.574219 145.324219 197.542969 145.175781 197.507812 C 144.113281 198.695312 142.371094 199.277344 140.722656 199.664062 C 140.757812 201.714844 140.042969 203.988281 139.425781 205.59375 C 139.074219 206.503906 138.507812 207.132812 137.808594 207.597656 C 137.800781 207.722656 137.792969 207.847656 137.773438 207.972656 C 137.476562 210.273438 135.867188 211.046875 134.230469 212.15625 C 134.058594 214.203125 133.222656 216.121094 131.179688 217.007812 C 129.027344 217.9375 126.847656 217.097656 124.96875 215.992188 C 124.371094 215.640625 123.683594 215.128906 123.074219 214.808594 L 122.253906 214.601562 L 121.523438 213.785156 C 121.117188 213.328125 120.902344 212.9375 120.726562 212.542969 C 119.921875 212.472656 119.136719 212.296875 118.375 211.859375 C 117.453125 211.328125 116.921875 210.636719 116.289062 209.867188 C 115.929688 209.753906 115.527344 209.667969 115.164062 209.535156 C 112.066406 208.402344 108.476562 205.8125 106.066406 203.460938 C 105.277344 202.910156 104.464844 202.421875 103.695312 201.824219 C 103.074219 201.34375 103.421875 201.640625 102.914062 201.128906 C 102.476562 200.695312 101.710938 199.644531 101.269531 199.339844 C 100.867188 199.066406 100.859375 199.050781 100.542969 198.726562 C 99.808594 197.964844 99.503906 197.210938 99.21875 196.304688 L 98.152344 195.949219 L 97.777344 193.871094 C 97.648438 193.144531 97.699219 192.570312 97.660156 191.929688 C 96.578125 190.898438 96.101562 190.128906 95.894531 188.503906 C 95.746094 187.339844 95.96875 186.386719 96.53125 185.476562 C 96.394531 185.371094 96.265625 185.277344 96.164062 185.195312 C 94.433594 183.820312 93.300781 182.210938 93.265625 179.910156 C 93.253906 179.636719 93.238281 179.238281 93.195312 178.929688 C 92.957031 178.753906 92.632812 178.5625 92.433594 178.441406 C 91.457031 177.839844 91.015625 177.265625 90.582031 176.5 L 89.996094 176.5 L 88.984375 175.59375 C 88.878906 175.5 88.738281 175.363281 88.613281 175.273438 C 87.105469 174.6875 85.851562 173.664062 85.207031 172.214844 C 83.695312 171.566406 82.550781 170.988281 81.515625 169.425781 C 81.136719 168.859375 80.910156 168.378906 80.738281 167.863281 C 79.027344 167.253906 77.890625 165.847656 76.796875 164.410156 C 76.566406 164.105469 76.101562 163.457031 75.800781 163.214844 C 74.894531 162.648438 74.515625 162.097656 74.082031 161.363281 C 73.691406 161.304688 73.265625 161.261719 72.984375 161.226562 L 72.03125 161.105469 L 71.269531 160.523438 C 69.070312 158.847656 68.019531 157.410156 67.539062 155.171875 C 67.230469 155.082031 66.929688 154.996094 66.652344 154.894531 C 64.496094 154.117188 62.648438 152.757812 62.070312 150.613281 C 61.179688 149.78125 60.710938 148.675781 60.710938 147.28125 C 60.710938 144.929688 61.648438 142.785156 63.976562 141.917969 L 64.578125 141.691406 L 128.433594 141.691406 L 128.433594 40.605469 L 193.355469 40.605469 L 192.6875 84.667969 C 193.78125 85.320312 194.714844 86.164062 195.257812 87.238281 C 195.597656 87.253906 195.941406 87.253906 196.164062 87.253906 C 196.546875 87.253906 196.933594 87.25 197.324219 87.25 C 198.835938 85.304688 200.859375 83.65625 203.484375 84.390625 C 206.285156 85.171875 207.203125 88.078125 207.890625 90.558594 C 207.914062 90.632812 207.949219 90.753906 207.988281 90.851562 C 208.871094 91.042969 212.09375 90.859375 212.851562 90.859375 C 214.332031 90.859375 215.601562 91.496094 216.632812 92.457031 C 216.675781 92.429688 216.722656 92.398438 216.769531 92.367188 C 219.082031 90.921875 221.691406 90.273438 224.207031 91.664062 C 225.238281 92.234375 225.9375 92.972656 226.71875 93.816406 C 226.847656 93.957031 227.085938 94.230469 227.253906 94.351562 C 228.304688 94.765625 229.183594 95.375 229.980469 96.175781 C 230.164062 96.359375 230.363281 96.597656 230.558594 96.8125 C 230.8125 96.746094 231.09375 96.640625 231.253906 96.578125 C 233.214844 95.832031 235.28125 95.019531 237.261719 96.246094 C 237.742188 96.539062 237.972656 96.804688 238.339844 97.167969 C 238.390625 97.195312 238.449219 97.21875 238.5 97.238281 C 238.992188 97.433594 239.359375 97.65625 239.664062 97.910156 C 240.671875 97.792969 241.640625 98.101562 242.542969 98.660156 C 242.691406 98.75 242.839844 98.855469 242.996094 98.953125 "/></g><path style=" stroke:none;fill-rule:evenodd;fill:#d71920;fill-opacity:1;" d="M 307.9375 160.753906 L 200.390625 160.753906 L 200.390625 255.277344 C 200.976562 256.9375 201.804688 259.832031 201.804688 260.476562 C 201.804688 263.859375 204.546875 263.304688 204.546875 266.445312 C 204.546875 267.859375 205.101562 269.691406 206 270.804688 C 207.621094 272.820312 209.035156 269.757812 210.433594 273.386719 C 210.890625 274.578125 210.527344 274.246094 212.527344 275 C 216.9375 275 217.75 276.9375 220.425781 278.871094 C 223.917969 281.394531 229.792969 277.148438 232.761719 281.210938 C 234.832031 284.046875 236.34375 283.53125 239.644531 281.675781 C 240.746094 281.054688 242.34375 281.929688 243 281.375 C 245.460938 279.289062 243.800781 269.964844 242.191406 267.574219 C 237.28125 260.277344 241.507812 252.558594 242.515625 244.5 C 242.515625 242.753906 243.007812 240.769531 244.609375 239.65625 C 247.597656 237.585938 246.945312 237.007812 248.238281 234.089844 C 249.621094 230.96875 254.792969 230.785156 256.945312 227.554688 C 259.046875 224.398438 262.714844 223.613281 266.132812 221.988281 C 268.960938 221.28125 271.867188 219.949219 273.46875 217.628906 C 276.203125 213.679688 276.488281 214.695312 280.96875 213.917969 C 281.925781 213.753906 284.652344 210.714844 285.5625 209.804688 C 286.429688 208.933594 289.949219 209.269531 290.238281 208.511719 C 290.792969 207.050781 290.746094 205.480469 291.445312 204.074219 C 291.910156 203.144531 295.097656 202.390625 296.085938 201.617188 C 296.910156 201 297.429688 199.402344 298.789062 199.347656 C 299.730469 199.308594 300.621094 199.726562 301.574219 199.832031 C 302.628906 199.949219 307.28125 199.226562 306.011719 197.808594 C 305 196.679688 304.113281 197.085938 304.113281 195.132812 C 304.113281 192.90625 305.140625 192.519531 306.28125 190.839844 C 307.183594 189.632812 307.042969 187.703125 306.117188 186.5625 C 303.835938 183.753906 306.339844 182.609375 307.570312 180.191406 C 308.484375 178.394531 307.730469 178.535156 307.730469 176.800781 C 307.730469 171.617188 312.390625 169.582031 309.019531 163.488281 C 309.019531 162.074219 308.84375 161.425781 307.9375 160.753906 "/><path style=" stroke:none;fill-rule:evenodd;fill:#283b7e;fill-opacity:1;" d="M 200.390625 160.753906 L 200.390625 89.097656 C 200.015625 89.550781 199.601562 90.136719 199.144531 90.867188 C 197.066406 90.625 192.214844 91.351562 192.214844 89.414062 C 192.214844 88.046875 190.039062 87.375 189.097656 86.796875 L 189.746094 44.164062 L 131.988281 44.164062 L 131.988281 145.25 L 65.21875 145.25 C 64.46875 145.53125 64.265625 146.292969 64.265625 147.28125 C 64.265625 148.636719 65.4375 147.921875 65.4375 149.144531 C 65.4375 151.886719 70.722656 151.800781 70.800781 152.832031 C 70.992188 155.363281 71.445312 156.1875 73.421875 157.695312 C 74.183594 157.789062 75.289062 157.921875 76.003906 158.179688 C 76.886719 158.5 76.902344 159.714844 77.699219 160.207031 C 79.269531 161.175781 80.535156 164.242188 82.175781 164.582031 C 84.644531 165.09375 83.363281 165.78125 84.476562 167.460938 C 85.136719 168.460938 86.085938 168.722656 87.191406 169.195312 C 87.628906 169.339844 88.246094 169.976562 88.351562 170.449219 C 88.53125 171.25 89.238281 171.710938 89.957031 171.980469 C 90.492188 172.179688 90.925781 172.558594 91.351562 172.941406 C 93.679688 172.941406 92.996094 174.609375 94.296875 175.414062 C 96.488281 176.765625 96.675781 177.167969 96.820312 179.808594 C 96.820312 182.960938 101.625 182.71875 100.003906 186.496094 C 99.917969 187.199219 99.308594 187.175781 99.421875 188.054688 C 99.582031 189.328125 100.03125 189.050781 100.691406 190 C 101.472656 191.121094 101.050781 191.996094 101.277344 193.242188 C 102.75 193.734375 102.304688 195.742188 103.273438 196.402344 C 104.363281 197.148438 104.914062 198.269531 105.875 199.015625 C 106.703125 199.660156 107.449219 200.074219 108.355469 200.726562 C 110.386719 202.757812 113.734375 205.226562 116.382812 206.195312 C 117.269531 206.519531 118.132812 206.53125 118.804688 207.328125 C 120.226562 209.023438 119.886719 209.03125 122.636719 209.03125 C 123.410156 209.03125 123.636719 210.8125 124.175781 211.417969 C 125.5625 211.761719 130.707031 216.757812 130.707031 211.335938 C 130.707031 208.933594 135.527344 208.414062 133.929688 206.816406 C 132.070312 204.953125 135.699219 205.375 136.105469 204.316406 C 136.433594 203.46875 137.761719 199.347656 136.914062 198.667969 C 133.703125 196.097656 142.636719 196.765625 142.636719 194.714844 C 142.636719 192.257812 144.984375 193.921875 146.101562 194.070312 C 148.710938 194.410156 151.824219 194.085938 154.664062 194.039062 C 157.757812 195.070312 155.496094 196.15625 159.34375 194.445312 C 162.628906 192.984375 163.074219 195.554688 163.941406 198.375 C 164.289062 199.507812 165.8125 199.113281 166.925781 199.386719 C 168.066406 199.667969 170.507812 202.917969 171.414062 203.832031 C 171.917969 204 173.921875 208.433594 174.960938 209.15625 C 177.328125 210.804688 177.21875 210.757812 177.21875 214 C 177.21875 219.640625 182.054688 219.808594 182.054688 224.164062 C 182.054688 227.410156 182.734375 231.308594 186.570312 231.75 C 189.371094 232.074219 191.9375 239.722656 193.710938 242.78125 C 194.382812 242.78125 198.054688 245.78125 198.46875 246.429688 C 200.195312 249.117188 198.148438 248.535156 198.148438 250.644531 C 198.148438 252.15625 199.222656 252.828125 199.871094 254.101562 C 199.957031 254.128906 200.152344 254.601562 200.390625 255.277344 Z M 200.390625 160.753906 "/><path style=" stroke:none;fill-rule:evenodd;fill:#ffffff;fill-opacity:1;" d="M 202.234375 87.785156 C 201.742188 87.800781 201.140625 88.191406 200.390625 89.097656 L 200.390625 160.753906 L 307.9375 160.753906 C 307.898438 160.722656 307.855469 160.695312 307.8125 160.664062 C 307.210938 160.246094 308.054688 158.257812 308.054688 157.597656 C 308.054688 155.140625 306.441406 154.386719 306.441406 151.707031 C 306.441406 150.769531 306.671875 148.175781 306.199219 147.59375 C 304.398438 145.375 302.601562 147.308594 301.039062 143.476562 L 301.472656 110.015625 C 300.285156 108.421875 289.65625 108.144531 289.59375 105.679688 C 289.53125 103.308594 285.53125 104.691406 283.984375 104.171875 C 281.90625 103.46875 282.476562 102.085938 281.121094 100.726562 C 278.050781 97.640625 277.808594 104.121094 274.425781 102.265625 C 272.253906 101.074219 272.726562 100.414062 269.910156 101.132812 C 269.566406 101.132812 267.421875 102.660156 266.964844 102.953125 C 266.058594 103.535156 266.035156 102.804688 265.1875 102.429688 C 262.425781 101.191406 263.21875 103.398438 261.277344 103.523438 C 259.9375 103.609375 259.570312 104.742188 258.476562 105.554688 C 257.0625 106.613281 256.128906 105.273438 255.492188 104.34375 C 254.292969 102.585938 255.472656 100.789062 252.914062 101.921875 C 251.710938 102.453125 249.851562 103.398438 249.851562 101.597656 C 249.851562 100.527344 245.867188 102.171875 242.878906 102.574219 C 241.621094 102.746094 240.355469 101.101562 239.9375 101.519531 C 238.257812 103.199219 238.101562 100.90625 237.195312 100.550781 C 234.652344 99.546875 236.523438 98.378906 232.519531 99.90625 C 228.003906 101.625 228.636719 98.695312 225.910156 97.644531 C 223.507812 96.722656 223.019531 92.652344 218.652344 95.386719 C 218.355469 95.570312 216.347656 99.800781 215.914062 98.128906 C 215.542969 96.707031 214.332031 94.417969 212.851562 94.417969 C 208.40625 94.417969 205.496094 95.21875 204.46875 91.511719 C 203.90625 89.496094 203.324219 87.742188 202.234375 87.785156 Z M 164.253906 133.792969 L 158.007812 153.160156 L 137.679688 153.121094 L 154.148438 165.050781 L 147.828125 184.394531 L 164.253906 172.398438 L 180.679688 184.394531 L 174.359375 165.050781 L 190.832031 153.121094 L 170.5 153.160156 Z M 164.253906 133.792969 "/><path style=" stroke:none;fill-rule:nonzero;fill:#c0c0c0;fill-opacity:1;" d="M 222.453125 74.640625 L 218.765625 89.636719 L 222.453125 93.125 L 226.132812 89.636719 Z M 195.632812 163.359375 C 195.652344 163.25 195.679688 163.128906 195.710938 163.019531 L 220.074219 63.855469 C 220.136719 63.585938 220.238281 63.335938 220.386719 63.105469 C 220.53125 62.871094 220.710938 62.667969 220.925781 62.496094 C 221.140625 62.324219 221.375 62.195312 221.632812 62.101562 C 221.894531 62.007812 222.160156 61.960938 222.433594 61.960938 C 222.707031 61.957031 222.976562 62 223.238281 62.089844 C 223.496094 62.175781 223.734375 62.304688 223.953125 62.472656 C 224.167969 62.640625 224.351562 62.839844 224.5 63.070312 C 224.652344 63.300781 224.757812 63.550781 224.824219 63.816406 L 249.195312 163.023438 C 249.226562 163.132812 249.257812 163.25 249.277344 163.359375 L 262.367188 216.644531 C 262.445312 216.898438 262.480469 217.160156 262.476562 217.425781 C 262.46875 217.691406 262.421875 217.953125 262.332031 218.203125 C 262.242188 218.453125 262.113281 218.683594 261.949219 218.890625 C 261.78125 219.101562 261.589844 219.277344 261.363281 219.421875 C 261.140625 219.570312 260.902344 219.675781 260.644531 219.742188 C 260.386719 219.8125 260.125 219.835938 259.859375 219.816406 C 259.59375 219.800781 259.335938 219.738281 259.089844 219.636719 C 258.84375 219.535156 258.621094 219.398438 258.417969 219.222656 L 227.046875 191.9375 L 227.035156 191.925781 L 222.453125 187.941406 L 186.488281 219.222656 L 186.480469 219.222656 C 186.179688 219.484375 185.839844 219.664062 185.453125 219.753906 C 185.066406 219.847656 184.683594 219.847656 184.296875 219.75 C 183.984375 219.671875 183.695312 219.535156 183.433594 219.34375 C 183.171875 219.152344 182.957031 218.917969 182.789062 218.640625 C 182.621094 218.367188 182.511719 218.066406 182.464844 217.746094 C 182.414062 217.425781 182.425781 217.109375 182.503906 216.792969 Z M 205.003906 161.324219 L 239.964844 161.324219 L 222.484375 146.066406 Z M 239.964844 166.222656 L 204.941406 166.222656 L 222.453125 181.457031 Z M 213.054688 126.519531 L 231.792969 126.519531 L 222.421875 118.339844 Z M 231.835938 131.417969 L 213.125 131.417969 L 222.484375 139.589844 Z M 217.4375 95.078125 L 216.542969 98.714844 L 218.902344 96.476562 Z M 215.820312 106.105469 L 222.425781 111.867188 L 229.058594 106.074219 L 222.453125 99.828125 Z M 228.363281 98.71875 L 227.472656 95.078125 L 225.992188 96.480469 Z M 226.132812 115.109375 L 234.09375 122.0625 L 231.289062 110.609375 Z M 210.824219 121.992188 L 218.714844 115.109375 L 213.609375 110.648438 Z M 226.191406 142.835938 L 242.75 157.28125 L 236.902344 133.480469 Z M 202.136719 157.351562 L 218.765625 142.835938 L 208.007812 133.441406 Z M 199.519531 168 L 189.085938 210.46875 L 209.910156 192.363281 L 209.921875 192.351562 L 218.726562 184.699219 Z M 226.183594 184.699219 L 255.808594 210.46875 L 245.378906 168 Z M 226.183594 184.699219 "/><g clip-rule="nonzero" clip-path="url(#b91e70c5df)"><path style=" stroke:none;fill-rule:nonzero;fill:#ffba57;fill-opacity:1;" d="M 184.882812 41.503906 C 185.105469 41.265625 185.363281 41.082031 185.65625 40.945312 C 185.953125 40.8125 186.261719 40.738281 186.585938 40.726562 C 186.910156 40.71875 187.226562 40.769531 187.527344 40.882812 C 187.832031 41 188.101562 41.167969 188.335938 41.390625 C 188.574219 41.613281 188.757812 41.871094 188.890625 42.167969 C 189.023438 42.464844 189.09375 42.773438 189.105469 43.097656 C 189.113281 43.421875 189.058594 43.734375 188.941406 44.039062 C 188.828125 44.339844 188.65625 44.609375 188.433594 44.84375 C 185.257812 48.210938 182.785156 52.03125 181.015625 56.308594 C 180.179688 58.359375 179.546875 60.472656 179.121094 62.648438 C 178.691406 64.820312 178.480469 67.015625 178.480469 69.234375 C 178.480469 71.449219 178.691406 73.644531 179.121094 75.820312 C 179.546875 77.992188 180.179688 80.105469 181.015625 82.15625 C 182.78125 86.4375 185.25 90.257812 188.433594 93.621094 C 188.65625 93.855469 188.828125 94.125 188.941406 94.425781 C 189.058594 94.730469 189.113281 95.042969 189.105469 95.367188 C 189.09375 95.691406 189.023438 96.003906 188.890625 96.296875 C 188.757812 96.59375 188.574219 96.855469 188.339844 97.078125 C 188.101562 97.296875 187.832031 97.46875 187.527344 97.582031 C 187.226562 97.695312 186.910156 97.75 186.585938 97.738281 C 186.261719 97.726562 185.953125 97.652344 185.65625 97.519531 C 185.363281 97.386719 185.105469 97.199219 184.882812 96.960938 C 181.28125 93.160156 178.484375 88.839844 176.484375 84 C 175.523438 81.660156 174.800781 79.246094 174.3125 76.761719 C 173.824219 74.277344 173.578125 71.769531 173.578125 69.238281 C 173.578125 66.707031 173.824219 64.199219 174.3125 61.714844 C 174.800781 59.230469 175.523438 56.816406 176.484375 54.472656 C 178.484375 49.628906 181.28125 45.308594 184.882812 41.503906 Z M 237.792969 58.441406 C 237.570312 58.203125 237.398438 57.933594 237.28125 57.632812 C 237.164062 57.328125 237.109375 57.011719 237.117188 56.6875 C 237.128906 56.363281 237.199219 56.050781 237.332031 55.753906 C 237.464844 55.457031 237.652344 55.195312 237.886719 54.972656 C 238.125 54.75 238.398438 54.582031 238.703125 54.46875 C 239.007812 54.351562 239.320312 54.300781 239.648438 54.3125 C 239.972656 54.324219 240.28125 54.398438 240.578125 54.535156 C 240.875 54.671875 241.132812 54.859375 241.351562 55.097656 C 243.183594 57.03125 244.605469 59.230469 245.617188 61.691406 C 246.109375 62.886719 246.480469 64.121094 246.730469 65.390625 C 246.980469 66.660156 247.105469 67.941406 247.105469 69.234375 C 247.105469 70.527344 246.980469 71.808594 246.730469 73.078125 C 246.480469 74.34375 246.109375 75.578125 245.617188 76.773438 C 244.605469 79.238281 243.1875 81.4375 241.351562 83.367188 C 241.132812 83.605469 240.875 83.796875 240.578125 83.929688 C 240.28125 84.066406 239.972656 84.140625 239.648438 84.152344 C 239.320312 84.164062 239.007812 84.113281 238.703125 84 C 238.394531 83.882812 238.125 83.714844 237.886719 83.492188 C 237.652344 83.269531 237.464844 83.011719 237.332031 82.710938 C 237.199219 82.414062 237.128906 82.105469 237.117188 81.777344 C 237.109375 81.453125 237.164062 81.140625 237.28125 80.835938 C 237.398438 80.53125 237.570312 80.261719 237.792969 80.027344 C 239.203125 78.53125 240.300781 76.835938 241.085938 74.941406 C 241.832031 73.109375 242.207031 71.207031 242.207031 69.234375 C 242.207031 67.257812 241.832031 65.355469 241.085938 63.527344 C 240.300781 61.628906 239.203125 59.933594 237.792969 58.441406 Z M 247.132812 51.648438 C 246.910156 51.410156 246.742188 51.140625 246.628906 50.839844 C 246.515625 50.535156 246.460938 50.222656 246.472656 49.898438 C 246.480469 49.574219 246.550781 49.265625 246.6875 48.96875 C 246.820312 48.675781 247.003906 48.414062 247.238281 48.195312 C 247.476562 47.972656 247.746094 47.804688 248.046875 47.6875 C 248.351562 47.574219 248.664062 47.519531 248.988281 47.53125 C 249.3125 47.539062 249.621094 47.609375 249.917969 47.742188 C 250.210938 47.875 250.472656 48.058594 250.691406 48.296875 C 253.40625 51.167969 255.515625 54.429688 257.019531 58.082031 C 257.746094 59.851562 258.296875 61.675781 258.664062 63.550781 C 259.035156 65.425781 259.222656 67.320312 259.222656 69.234375 C 259.222656 71.148438 259.035156 73.039062 258.664062 74.917969 C 258.296875 76.792969 257.746094 78.617188 257.019531 80.382812 C 255.515625 84.039062 253.40625 87.300781 250.695312 90.171875 C 250.472656 90.40625 250.214844 90.59375 249.917969 90.726562 C 249.621094 90.859375 249.3125 90.929688 248.988281 90.9375 C 248.664062 90.949219 248.351562 90.894531 248.046875 90.78125 C 247.742188 90.667969 247.472656 90.496094 247.238281 90.277344 C 247.003906 90.054688 246.816406 89.792969 246.683594 89.5 C 246.550781 89.203125 246.480469 88.894531 246.46875 88.570312 C 246.460938 88.246094 246.511719 87.929688 246.628906 87.628906 C 246.742188 87.324219 246.914062 87.054688 247.132812 86.820312 C 249.429688 84.394531 251.214844 81.636719 252.488281 78.550781 C 253.09375 77.070312 253.550781 75.550781 253.859375 73.980469 C 254.167969 72.414062 254.324219 70.832031 254.324219 69.234375 C 254.324219 67.636719 254.167969 66.054688 253.859375 64.488281 C 253.550781 62.917969 253.09375 61.398438 252.488281 59.917969 C 251.214844 56.832031 249.429688 54.074219 247.132812 51.648438 Z M 256.464844 44.84375 C 256.242188 44.609375 256.074219 44.339844 255.960938 44.035156 C 255.847656 43.734375 255.792969 43.421875 255.804688 43.097656 C 255.816406 42.773438 255.886719 42.464844 256.019531 42.167969 C 256.152344 41.875 256.339844 41.617188 256.574219 41.394531 C 256.8125 41.171875 257.082031 41.003906 257.382812 40.890625 C 257.6875 40.777344 258 40.726562 258.324219 40.734375 C 258.644531 40.746094 258.957031 40.816406 259.25 40.949219 C 259.546875 41.082031 259.804688 41.269531 260.023438 41.503906 C 263.625 45.308594 266.425781 49.632812 268.421875 54.472656 C 269.382812 56.816406 270.105469 59.230469 270.597656 61.714844 C 271.085938 64.199219 271.328125 66.707031 271.328125 69.238281 C 271.328125 71.769531 271.085938 74.277344 270.597656 76.761719 C 270.105469 79.246094 269.382812 81.660156 268.421875 84.003906 C 266.425781 88.84375 263.625 93.160156 260.023438 96.960938 C 259.804688 97.199219 259.546875 97.382812 259.25 97.519531 C 258.953125 97.652344 258.644531 97.722656 258.320312 97.734375 C 257.996094 97.746094 257.683594 97.691406 257.382812 97.578125 C 257.078125 97.464844 256.808594 97.296875 256.570312 97.074219 C 256.335938 96.851562 256.152344 96.59375 256.019531 96.296875 C 255.882812 96.003906 255.8125 95.695312 255.804688 95.371094 C 255.792969 95.046875 255.84375 94.734375 255.960938 94.429688 C 256.074219 94.125 256.242188 93.855469 256.464844 93.621094 C 259.648438 90.257812 262.117188 86.4375 263.878906 82.160156 C 264.722656 80.109375 265.355469 77.996094 265.785156 75.820312 C 266.214844 73.644531 266.429688 71.449219 266.429688 69.234375 C 266.429688 67.015625 266.214844 64.820312 265.785156 62.648438 C 265.355469 60.472656 264.722656 58.359375 263.878906 56.308594 C 262.113281 52.03125 259.640625 48.210938 256.464844 44.847656 Z M 203.554688 55.097656 C 203.773438 54.859375 204.035156 54.671875 204.328125 54.535156 C 204.625 54.398438 204.9375 54.324219 205.261719 54.3125 C 205.585938 54.300781 205.902344 54.351562 206.207031 54.46875 C 206.511719 54.582031 206.78125 54.75 207.019531 54.972656 C 207.257812 55.195312 207.441406 55.457031 207.574219 55.753906 C 207.710938 56.050781 207.78125 56.363281 207.789062 56.6875 C 207.796875 57.011719 207.742188 57.328125 207.628906 57.632812 C 207.511719 57.933594 207.339844 58.203125 207.113281 58.441406 C 205.703125 59.933594 204.605469 61.628906 203.820312 63.527344 C 203.070312 65.355469 202.691406 67.257812 202.691406 69.234375 C 202.691406 71.210938 203.070312 73.113281 203.820312 74.941406 C 204.605469 76.839844 205.703125 78.535156 207.113281 80.027344 C 207.339844 80.261719 207.511719 80.53125 207.625 80.835938 C 207.742188 81.140625 207.796875 81.453125 207.789062 81.777344 C 207.78125 82.105469 207.710938 82.414062 207.574219 82.710938 C 207.441406 83.011719 207.257812 83.269531 207.019531 83.492188 C 206.78125 83.714844 206.511719 83.882812 206.207031 84 C 205.902344 84.113281 205.585938 84.164062 205.261719 84.152344 C 204.9375 84.140625 204.625 84.066406 204.328125 83.929688 C 204.035156 83.792969 203.773438 83.605469 203.554688 83.367188 C 201.722656 81.433594 200.296875 79.234375 199.28125 76.773438 C 198.296875 74.355469 197.804688 71.84375 197.804688 69.234375 C 197.804688 66.621094 198.296875 64.109375 199.28125 61.691406 C 200.300781 59.230469 201.726562 57.035156 203.554688 55.097656 Z M 194.214844 48.296875 C 194.4375 48.066406 194.699219 47.890625 194.992188 47.761719 C 195.285156 47.636719 195.59375 47.570312 195.910156 47.5625 C 196.230469 47.558594 196.539062 47.613281 196.839844 47.726562 C 197.136719 47.839844 197.402344 48.007812 197.636719 48.226562 C 197.871094 48.449219 198.050781 48.703125 198.183594 48.992188 C 198.316406 49.285156 198.390625 49.589844 198.402344 49.910156 C 198.414062 50.230469 198.367188 50.539062 198.257812 50.839844 C 198.148438 51.140625 197.988281 51.410156 197.773438 51.648438 C 195.476562 54.074219 193.695312 56.832031 192.417969 59.917969 C 191.8125 61.394531 191.355469 62.917969 191.046875 64.484375 C 190.738281 66.054688 190.585938 67.636719 190.585938 69.234375 C 190.585938 70.832031 190.738281 72.414062 191.046875 73.980469 C 191.355469 75.546875 191.8125 77.070312 192.417969 78.550781 C 193.695312 81.636719 195.476562 84.394531 197.773438 86.820312 C 197.996094 87.054688 198.164062 87.324219 198.277344 87.628906 C 198.394531 87.929688 198.445312 88.242188 198.4375 88.566406 C 198.425781 88.890625 198.355469 89.203125 198.222656 89.496094 C 198.089844 89.792969 197.902344 90.050781 197.667969 90.273438 C 197.433594 90.496094 197.164062 90.664062 196.859375 90.777344 C 196.558594 90.894531 196.242188 90.945312 195.917969 90.9375 C 195.597656 90.925781 195.285156 90.855469 194.992188 90.722656 C 194.695312 90.589844 194.4375 90.40625 194.214844 90.171875 C 191.5 87.300781 189.390625 84.035156 187.886719 80.382812 C 187.160156 78.613281 186.613281 76.792969 186.242188 74.914062 C 185.871094 73.039062 185.6875 71.144531 185.6875 69.234375 C 185.6875 67.320312 185.871094 65.425781 186.242188 63.550781 C 186.613281 61.675781 187.160156 59.851562 187.886719 58.082031 C 189.390625 54.429688 191.5 51.167969 194.214844 48.296875 Z M 194.214844 48.296875 "/></g><path style=" stroke:none;fill-rule:evenodd;fill:#fa4655;fill-opacity:1;" d="M 222.453125 78.132812 C 228.015625 78.132812 232.546875 74.136719 232.546875 69.238281 C 232.546875 64.328125 228.015625 60.332031 222.453125 60.332031 C 216.890625 60.332031 212.359375 64.328125 212.359375 69.238281 C 212.359375 74.136719 216.890625 78.132812 222.453125 78.132812 Z M 222.453125 78.132812 "/><path style=" stroke:none;fill-rule:evenodd;fill:#e13f4d;fill-opacity:1;" d="M 217.40625 69.238281 C 217.40625 65.09375 220.621094 61.601562 224.984375 60.621094 C 224.152344 60.429688 223.308594 60.332031 222.453125 60.332031 C 216.882812 60.332031 212.359375 64.320312 212.359375 69.238281 C 212.359375 72.351562 214.175781 75.089844 216.921875 76.675781 C 217.640625 77.089844 218.394531 77.417969 219.191406 77.65625 C 219.980469 77.890625 220.78125 78.042969 221.601562 78.101562 C 221.878906 78.121094 222.167969 78.132812 222.453125 78.132812 C 222.742188 78.132812 223.019531 78.121094 223.308594 78.101562 C 223.871094 78.058594 224.429688 77.976562 224.984375 77.855469 C 224.332031 77.707031 223.699219 77.503906 223.089844 77.238281 C 221.867188 76.707031 220.785156 75.972656 219.847656 75.027344 C 219.054688 74.222656 218.441406 73.300781 218 72.261719 C 217.605469 71.292969 217.40625 70.285156 217.40625 69.238281 Z M 217.40625 69.238281 "/><g style="fill:#c0c0c0;fill-opacity:1;"><g transform="translate(93.111327, 325.79863)"><path style="stroke:none" d="M 22.890625 -28.5625 L 22.890625 -23.8125 L 14.65625 -23.8125 L 14.65625 0 L 9.03125 0 L 9.03125 -23.8125 L 0.78125 -23.8125 L 0.78125 -28.5625 Z M 22.890625 -28.5625 "/></g></g><g style="fill:#c0c0c0;fill-opacity:1;"><g transform="translate(116.780889, 325.79863)"><path style="stroke:none" d="M 6.265625 0 L 0.484375 0 L 8.953125 -14.6875 L 0.90625 -28.5625 L 6.890625 -28.5625 L 12.8125 -18.328125 L 13.296875 -18.328125 L 19.3125 -28.5625 L 25.015625 -28.5625 L 16.96875 -14.6875 L 25.4375 0 L 19.453125 0 L 13.109375 -11.015625 L 12.625 -11.015625 Z M 6.265625 0 "/></g></g><g style="fill:#c0c0c0;fill-opacity:1;"><g transform="translate(140.157425, 325.79863)"><path style="stroke:none" d="M 13.671875 -11.484375 L 1.703125 -11.484375 L 1.703125 -16.25 L 13.671875 -16.25 Z M 13.671875 -11.484375 "/></g></g><g style="fill:#c0c0c0;fill-opacity:1;"><g transform="translate(155.976214, 325.79863)"><path style="stroke:none" d="M 15.609375 0.40625 C 12.972656 0.40625 10.648438 -0.140625 8.640625 -1.234375 C 6.640625 -2.328125 5.070312 -3.96875 3.9375 -6.15625 C 2.8125 -8.351562 2.25 -11.0625 2.25 -14.28125 C 2.25 -17.5 2.8125 -20.203125 3.9375 -22.390625 C 5.070312 -24.585938 6.640625 -26.234375 8.640625 -27.328125 C 10.648438 -28.421875 12.972656 -28.96875 15.609375 -28.96875 C 18.359375 -28.96875 20.691406 -28.429688 22.609375 -27.359375 C 24.523438 -26.285156 25.894531 -24.644531 26.71875 -22.4375 L 22.59375 -19.921875 L 22.109375 -19.9375 C 21.492188 -21.425781 20.660156 -22.492188 19.609375 -23.140625 C 18.566406 -23.785156 17.234375 -24.109375 15.609375 -24.109375 C 13.234375 -24.109375 11.378906 -23.320312 10.046875 -21.75 C 8.722656 -20.175781 8.0625 -17.6875 8.0625 -14.28125 C 8.0625 -10.882812 8.722656 -8.398438 10.046875 -6.828125 C 11.378906 -5.253906 13.234375 -4.46875 15.609375 -4.46875 C 19.316406 -4.46875 21.585938 -6.273438 22.421875 -9.890625 L 22.90625 -9.890625 L 27.078125 -7.71875 C 26.296875 -5.007812 24.957031 -2.976562 23.0625 -1.625 C 21.175781 -0.269531 18.691406 0.40625 15.609375 0.40625 Z M 15.609375 0.40625 "/></g></g><g style="fill:#c0c0c0;fill-opacity:1;"><g transform="translate(183.649274, 325.79863)"><path style="stroke:none" d="M 15.5625 0.40625 C 12.945312 0.40625 10.640625 -0.125 8.640625 -1.1875 C 6.640625 -2.257812 5.070312 -3.890625 3.9375 -6.078125 C 2.8125 -8.273438 2.25 -11.007812 2.25 -14.28125 C 2.25 -17.550781 2.8125 -20.28125 3.9375 -22.46875 C 5.070312 -24.664062 6.640625 -26.296875 8.640625 -27.359375 C 10.640625 -28.429688 12.945312 -28.96875 15.5625 -28.96875 C 18.1875 -28.96875 20.492188 -28.4375 22.484375 -27.375 C 24.472656 -26.3125 26.03125 -24.679688 27.15625 -22.484375 C 28.28125 -20.285156 28.84375 -17.550781 28.84375 -14.28125 C 28.84375 -11.007812 28.28125 -8.273438 27.15625 -6.078125 C 26.03125 -3.878906 24.472656 -2.25 22.484375 -1.1875 C 20.492188 -0.125 18.1875 0.40625 15.5625 0.40625 Z M 15.5625 -4.5 C 17.988281 -4.5 19.835938 -5.273438 21.109375 -6.828125 C 22.390625 -8.378906 23.03125 -10.863281 23.03125 -14.28125 C 23.03125 -17.6875 22.390625 -20.171875 21.109375 -21.734375 C 19.835938 -23.296875 17.988281 -24.078125 15.5625 -24.078125 C 13.132812 -24.078125 11.273438 -23.296875 9.984375 -21.734375 C 8.703125 -20.171875 8.0625 -17.6875 8.0625 -14.28125 C 8.0625 -10.863281 8.703125 -8.378906 9.984375 -6.828125 C 11.273438 -5.273438 13.132812 -4.5 15.5625 -4.5 Z M 15.5625 -4.5 "/></g></g><g style="fill:#c0c0c0;fill-opacity:1;"><g transform="translate(214.75952, 325.79863)"><path style="stroke:none" d="M 8.890625 0 L 3.71875 0 L 3.71875 -28.5625 L 11.09375 -28.5625 L 18.328125 -7.5625 L 18.734375 -7.5625 L 25.921875 -28.5625 L 33.125 -28.5625 L 33.125 0 L 27.78125 0 L 27.78125 -18.875 L 27.28125 -18.953125 L 20.6875 0 L 15.984375 0 L 9.375 -18.953125 L 8.890625 -18.875 Z M 8.890625 0 "/></g></g><g style="fill:#c0c0c0;fill-opacity:1;"><g transform="translate(251.611393, 325.79863)"><path style="stroke:none" d="M 15.140625 0.40625 C 11.203125 0.40625 8.28125 -0.523438 6.375 -2.390625 C 4.476562 -4.265625 3.53125 -7.035156 3.53125 -10.703125 L 3.53125 -28.5625 L 9.0625 -28.5625 L 9.0625 -10.75 C 9.0625 -8.664062 9.5625 -7.101562 10.5625 -6.0625 C 11.570312 -5.019531 13.097656 -4.5 15.140625 -4.5 C 19.191406 -4.5 21.21875 -6.582031 21.21875 -10.75 L 21.21875 -28.5625 L 26.734375 -28.5625 L 26.734375 -10.703125 C 26.734375 -7.035156 25.78125 -4.265625 23.875 -2.390625 C 21.976562 -0.523438 19.066406 0.40625 15.140625 0.40625 Z M 15.140625 0.40625 "/></g></g></g></svg>