<svg xmlns="http://www.w3.org/2000/svg" xmlns:xlink="http://www.w3.org/1999/xlink" width="500" zoomAndPan="magnify" viewBox="0 0 375 374.999991" height="500" preserveAspectRatio="xMidYMid meet" version="1.2"><defs><clipPath id="a363b739ee"><path d="M 10.65625 10.65625 L 364.65625 10.65625 L 364.65625 364.65625 L 10.65625 364.65625 Z M 10.65625 10.65625 "/></clipPath><clipPath id="af70cf19ff"><path d="M 60.714844 40.453125 L 314 40.453125 L 314 287 L 60.714844 287 Z M 60.714844 40.453125 "/></clipPath><clipPath id="9375270cbd"><path d="M 182 62 L 263 62 L 263 220.453125 L 182 220.453125 Z M 182 62 "/></clipPath><clipPath id="6d38fbbe51"><path d="M 173 40.453125 L 272 40.453125 L 272 98 L 173 98 Z M 173 40.453125 "/></clipPath></defs><g id="c3f69cfc64"><rect x="0" width="375" y="0" height="374.999991" style="fill:#ffffff;fill-opacity:1;stroke:none;"/><rect x="0" width="375" y="0" height="374.999991" style="fill:#ffffff;fill-opacity:1;stroke:none;"/><g clip-rule="nonzero" clip-path="url(#a363b739ee)"><path style=" stroke:none;fill-rule:nonzero;fill:#d71920;fill-opacity:1;" d="M 187.496094 364.359375 C 163.625 364.359375 140.464844 359.683594 118.660156 350.464844 C 97.605469 341.558594 78.691406 328.808594 62.453125 312.566406 C 46.214844 296.328125 33.457031 277.417969 24.554688 256.359375 C 15.332031 234.550781 10.65625 211.394531 10.65625 187.519531 C 10.65625 163.644531 15.332031 140.488281 24.550781 118.683594 C 33.457031 97.625 46.210938 78.710938 62.449219 62.472656 C 78.6875 46.234375 97.597656 33.480469 118.65625 24.578125 C 140.464844 15.355469 163.625 10.675781 187.496094 10.675781 C 211.371094 10.675781 234.527344 15.355469 256.332031 24.578125 C 277.390625 33.484375 296.304688 46.234375 312.542969 62.472656 C 328.78125 78.710938 341.535156 97.625 350.4375 118.683594 C 359.660156 140.488281 364.335938 163.644531 364.335938 187.519531 C 364.335938 211.394531 359.65625 234.550781 350.4375 256.355469 C 341.53125 277.414062 328.78125 296.324219 312.542969 312.5625 C 296.304688 328.800781 277.390625 341.558594 256.332031 350.460938 C 234.527344 359.6875 211.371094 364.359375 187.496094 364.359375 Z M 187.496094 12.445312 C 90.960938 12.445312 12.421875 90.984375 12.421875 187.519531 C 12.421875 284.050781 90.960938 362.59375 187.496094 362.59375 C 284.035156 362.59375 362.570312 284.050781 362.570312 187.519531 C 362.570312 90.984375 284.035156 12.445312 187.496094 12.445312 Z M 187.496094 12.445312 "/></g><g clip-rule="nonzero" clip-path="url(#af70cf19ff)"><path style=" stroke:none;fill-rule:evenodd;fill:#231f20;fill-opacity:1;" d="M 242.996094 98.953125 C 243.367188 98.882812 243.738281 98.800781 244.105469 98.714844 C 246.472656 98.148438 249.753906 96.867188 251.882812 98.5 C 253.535156 97.851562 255.289062 97.707031 256.78125 98.960938 C 257.484375 99.550781 257.867188 100.234375 258.113281 101.023438 C 258.140625 101.003906 258.164062 100.988281 258.191406 100.96875 C 258.839844 100.515625 259.550781 100.214844 260.308594 100.066406 C 260.476562 99.882812 260.648438 99.707031 260.878906 99.519531 C 262.554688 98.179688 264.507812 98.296875 266.363281 99.0625 C 267.203125 98.488281 268.105469 97.925781 269.035156 97.6875 C 270.628906 97.277344 272.148438 97.023438 273.730469 97.679688 C 274.328125 97.925781 274.804688 98.273438 275.292969 98.613281 C 276.160156 97.640625 276.972656 96.847656 278.375 96.480469 C 280.398438 95.945312 282.222656 96.792969 283.640625 98.214844 C 284.257812 98.835938 284.730469 99.527344 285.109375 100.3125 C 285.175781 100.449219 285.238281 100.601562 285.300781 100.75 C 285.648438 100.742188 286.039062 100.707031 286.324219 100.695312 C 288.3125 100.609375 290.300781 100.753906 291.789062 102.277344 C 292.269531 102.765625 292.621094 103.339844 292.84375 103.960938 C 293.851562 104.308594 295.527344 104.628906 296.226562 104.769531 C 298.710938 105.269531 302.726562 105.75 304.320312 107.886719 L 305.042969 108.855469 L 304.605469 142.707031 C 304.613281 142.726562 304.625 142.742188 304.636719 142.757812 C 304.664062 142.765625 304.691406 142.773438 304.71875 142.78125 C 306.53125 143.292969 307.71875 143.820312 308.957031 145.347656 C 310.417969 147.144531 309.996094 149.578125 309.996094 151.707031 C 309.996094 152.386719 310.289062 152.859375 310.578125 153.457031 C 311.238281 154.828125 311.609375 156.054688 311.609375 157.597656 C 311.609375 158.203125 311.480469 158.679688 311.355469 159.152344 C 312.097656 160.121094 312.441406 161.230469 312.542969 162.554688 C 313.898438 165.34375 314.222656 168.089844 313.179688 171.148438 C 312.578125 172.917969 311.285156 174.933594 311.285156 176.800781 C 311.285156 177.152344 311.445312 177.5625 311.503906 177.917969 C 311.742188 179.335938 311.375 180.550781 310.738281 181.804688 C 310.324219 182.613281 309.824219 183.316406 309.277344 184.035156 C 309.195312 184.144531 309.082031 184.285156 308.96875 184.4375 C 310.824219 186.828125 310.96875 190.445312 309.171875 192.910156 C 308.757812 193.5 308.203125 194.070312 307.808594 194.636719 C 308.089844 194.859375 308.363281 195.101562 308.660156 195.433594 C 309.507812 196.382812 309.933594 197.636719 309.734375 198.90625 C 309.335938 201.472656 306.925781 202.574219 304.683594 203.0625 C 303.636719 203.289062 302.25 203.488281 301.183594 203.371094 C 300.628906 203.308594 300.105469 203.1875 299.570312 203.050781 C 299.179688 203.558594 298.816406 204.007812 298.25 204.441406 C 297.359375 205.128906 296.21875 205.550781 295.183594 205.972656 C 294.972656 206.054688 294.683594 206.164062 294.417969 206.28125 C 294.417969 206.28125 294.417969 206.289062 294.417969 206.289062 C 294.125 207.496094 294.019531 208.578125 293.5625 209.777344 C 292.65625 212.160156 290.359375 212.425781 288.222656 212.6875 C 288.058594 212.707031 287.84375 212.726562 287.644531 212.761719 C 285.988281 214.488281 283.765625 217.042969 281.574219 217.421875 C 280.605469 217.589844 279.648438 217.699219 278.671875 217.808594 C 278.445312 217.832031 277.992188 217.867188 277.757812 217.933594 C 277.382812 218.214844 276.640625 219.300781 276.394531 219.65625 C 274.296875 222.691406 270.820312 224.429688 267.328125 225.351562 C 265.027344 226.378906 261.257812 227.496094 259.902344 229.527344 C 259.519531 230.105469 259.066406 230.636719 258.5625 231.117188 C 257.523438 232.105469 256.320312 232.832031 255.050781 233.476562 C 254.492188 233.761719 251.726562 234.996094 251.488281 235.535156 C 251.019531 236.589844 250.753906 237.726562 250.253906 238.753906 C 249.4375 240.433594 248.144531 241.535156 246.636719 242.582031 C 246.164062 242.910156 246.070312 244.007812 246.070312 244.5 L 246.070312 244.71875 L 246.042969 244.9375 C 245.914062 245.992188 245.730469 247.035156 245.523438 248.070312 C 244.75 251.941406 243.171875 256.734375 243.453125 260.652344 C 243.585938 262.472656 244.121094 264.066406 245.140625 265.589844 C 246.523438 267.640625 247.289062 271.226562 247.59375 273.660156 C 248.011719 276.984375 248.09375 281.71875 245.296875 284.089844 C 243.820312 285.335938 242.59375 285.128906 240.960938 285.015625 C 239.015625 286.089844 236.941406 287.070312 234.65625 286.667969 C 232.585938 286.304688 231.09375 284.957031 229.890625 283.3125 C 229.789062 283.167969 229.699219 283.078125 229.53125 283.019531 C 228.828125 282.773438 227.242188 282.992188 226.507812 283.074219 C 223.601562 283.402344 220.851562 283.566406 218.347656 281.757812 C 217.273438 280.980469 216.351562 280.03125 215.3125 279.277344 C 214.441406 278.648438 213.59375 278.558594 212.527344 278.558594 L 211.882812 278.558594 L 211.273438 278.328125 C 208.972656 277.460938 208.214844 277.296875 207.296875 275.117188 C 207.128906 275.117188 206.953125 275.105469 206.757812 275.082031 C 205.320312 274.898438 204.132812 274.152344 203.230469 273.035156 C 201.824219 271.289062 200.992188 268.679688 200.992188 266.445312 L 200.992188 266.398438 C 200.957031 266.359375 200.917969 266.320312 200.882812 266.285156 C 199.167969 264.554688 198.292969 263.164062 198.253906 260.652344 C 198.097656 259.695312 197.414062 257.375 196.96875 256.230469 L 196.707031 255.714844 C 196.40625 255.128906 195.820312 254.507812 195.460938 253.875 C 194.890625 252.871094 194.59375 251.800781 194.59375 250.640625 C 194.59375 249.605469 194.78125 248.847656 195.152344 248.113281 C 194.511719 247.539062 193.542969 246.769531 192.902344 246.339844 L 191.664062 246.339844 L 190.636719 244.566406 C 189.675781 242.90625 187.050781 236.5625 185.695312 235.21875 C 180.179688 234.316406 178.503906 229.160156 178.503906 224.164062 C 178.503906 223.816406 178.433594 223.625 178.234375 223.339844 C 177.582031 222.40625 176.558594 221.542969 175.824219 220.574219 C 174.335938 218.609375 173.664062 216.464844 173.664062 213.996094 C 173.664062 213.617188 173.691406 213.058594 173.675781 212.589844 C 173.425781 212.40625 173.140625 212.222656 172.933594 212.078125 C 171.734375 211.242188 170.824219 209.652344 170.101562 208.398438 C 169.757812 207.800781 169.359375 207 168.964844 206.40625 L 168.894531 206.339844 C 168.039062 205.476562 166.726562 203.667969 165.742188 202.820312 C 163.382812 202.660156 161.324219 201.960938 160.542969 199.417969 C 160.449219 199.109375 160.296875 198.527344 160.128906 197.988281 C 157.910156 198.964844 156.175781 199.546875 154.003906 197.613281 C 151.222656 197.695312 148.414062 197.957031 145.644531 197.597656 C 145.480469 197.574219 145.324219 197.542969 145.175781 197.507812 C 144.113281 198.695312 142.371094 199.277344 140.722656 199.664062 C 140.757812 201.714844 140.042969 203.988281 139.425781 205.59375 C 139.074219 206.503906 138.507812 207.132812 137.808594 207.597656 C 137.800781 207.722656 137.792969 207.847656 137.773438 207.972656 C 137.476562 210.273438 135.867188 211.046875 134.230469 212.15625 C 134.058594 214.203125 133.222656 216.121094 131.179688 217.007812 C 129.027344 217.9375 126.847656 217.097656 124.96875 215.992188 C 124.371094 215.640625 123.683594 215.128906 123.074219 214.808594 L 122.253906 214.601562 L 121.523438 213.785156 C 121.117188 213.328125 120.902344 212.9375 120.726562 212.542969 C 119.921875 212.472656 119.136719 212.296875 118.375 211.859375 C 117.453125 211.328125 116.921875 210.636719 116.289062 209.867188 C 115.929688 209.753906 115.527344 209.667969 115.164062 209.535156 C 112.066406 208.402344 108.476562 205.8125 106.066406 203.460938 C 105.277344 202.910156 104.464844 202.421875 103.695312 201.824219 C 103.074219 201.34375 103.421875 201.640625 102.914062 201.128906 C 102.476562 200.695312 101.710938 199.644531 101.269531 199.339844 C 100.867188 199.066406 100.859375 199.050781 100.542969 198.726562 C 99.808594 197.964844 99.503906 197.210938 99.21875 196.304688 L 98.152344 195.949219 L 97.777344 193.871094 C 97.648438 193.144531 97.699219 192.570312 97.660156 191.929688 C 96.578125 190.898438 96.101562 190.128906 95.894531 188.503906 C 95.746094 187.339844 95.96875 186.386719 96.53125 185.476562 C 96.394531 185.371094 96.265625 185.277344 96.164062 185.195312 C 94.433594 183.820312 93.300781 182.210938 93.265625 179.910156 C 93.253906 179.636719 93.238281 179.238281 93.195312 178.929688 C 92.957031 178.753906 92.632812 178.5625 92.433594 178.441406 C 91.457031 177.839844 91.015625 177.265625 90.582031 176.5 L 89.996094 176.5 L 88.984375 175.59375 C 88.878906 175.5 88.738281 175.363281 88.613281 175.273438 C 87.105469 174.6875 85.851562 173.664062 85.207031 172.214844 C 83.695312 171.566406 82.550781 170.988281 81.515625 169.425781 C 81.136719 168.859375 80.910156 168.378906 80.738281 167.863281 C 79.027344 167.253906 77.890625 165.847656 76.796875 164.410156 C 76.566406 164.105469 76.101562 163.457031 75.800781 163.214844 C 74.894531 162.648438 74.515625 162.097656 74.082031 161.363281 C 73.691406 161.304688 73.265625 161.261719 72.984375 161.226562 L 72.03125 161.105469 L 71.269531 160.523438 C 69.070312 158.847656 68.019531 157.410156 67.539062 155.171875 C 67.230469 155.082031 66.929688 154.996094 66.652344 154.894531 C 64.496094 154.117188 62.648438 152.757812 62.070312 150.613281 C 61.179688 149.78125 60.710938 148.675781 60.710938 147.28125 C 60.710938 144.929688 61.648438 142.785156 63.976562 141.917969 L 64.578125 141.691406 L 128.433594 141.691406 L 128.433594 40.605469 L 193.355469 40.605469 L 192.6875 84.667969 C 193.78125 85.320312 194.714844 86.164062 195.257812 87.238281 C 195.597656 87.253906 195.941406 87.253906 196.164062 87.253906 C 196.546875 87.253906 196.933594 87.25 197.324219 87.25 C 198.835938 85.304688 200.859375 83.65625 203.484375 84.390625 C 206.285156 85.171875 207.203125 88.078125 207.890625 90.558594 C 207.914062 90.632812 207.949219 90.753906 207.988281 90.851562 C 208.871094 91.042969 212.09375 90.859375 212.851562 90.859375 C 214.332031 90.859375 215.601562 91.496094 216.632812 92.457031 C 216.675781 92.429688 216.722656 92.398438 216.769531 92.367188 C 219.082031 90.921875 221.691406 90.273438 224.207031 91.664062 C 225.238281 92.234375 225.9375 92.972656 226.71875 93.816406 C 226.847656 93.957031 227.085938 94.230469 227.253906 94.351562 C 228.304688 94.765625 229.183594 95.375 229.980469 96.175781 C 230.164062 96.359375 230.363281 96.597656 230.558594 96.8125 C 230.8125 96.746094 231.09375 96.640625 231.253906 96.578125 C 233.214844 95.832031 235.28125 95.019531 237.261719 96.246094 C 237.742188 96.539062 237.972656 96.804688 238.339844 97.167969 C 238.390625 97.195312 238.449219 97.21875 238.5 97.238281 C 238.992188 97.433594 239.359375 97.65625 239.664062 97.910156 C 240.671875 97.792969 241.640625 98.101562 242.542969 98.660156 C 242.691406 98.75 242.839844 98.855469 242.996094 98.953125 "/></g><path style=" stroke:none;fill-rule:evenodd;fill:#d71920;fill-opacity:1;" d="M 307.9375 160.753906 L 200.390625 160.753906 L 200.390625 255.277344 C 200.976562 256.9375 201.804688 259.832031 201.804688 260.476562 C 201.804688 263.859375 204.546875 263.304688 204.546875 266.445312 C 204.546875 267.859375 205.101562 269.691406 206 270.804688 C 207.621094 272.820312 209.035156 269.757812 210.433594 273.386719 C 210.890625 274.578125 210.527344 274.246094 212.527344 275 C 216.9375 275 217.75 276.9375 220.425781 278.871094 C 223.917969 281.394531 229.792969 277.148438 232.761719 281.210938 C 234.832031 284.046875 236.34375 283.53125 239.644531 281.675781 C 240.746094 281.054688 242.34375 281.929688 243 281.375 C 245.460938 279.289062 243.800781 269.964844 242.191406 267.574219 C 237.28125 260.277344 241.507812 252.558594 242.515625 244.5 C 242.515625 242.753906 243.007812 240.769531 244.609375 239.65625 C 247.597656 237.585938 246.945312 237.007812 248.238281 234.089844 C 249.621094 230.96875 254.792969 230.785156 256.945312 227.554688 C 259.046875 224.398438 262.714844 223.613281 266.132812 221.988281 C 268.960938 221.28125 271.867188 219.949219 273.46875 217.628906 C 276.203125 213.679688 276.488281 214.695312 280.96875 213.917969 C 281.925781 213.753906 284.652344 210.714844 285.5625 209.804688 C 286.429688 208.933594 289.949219 209.269531 290.238281 208.511719 C 290.792969 207.050781 290.746094 205.480469 291.445312 204.074219 C 291.910156 203.144531 295.097656 202.390625 296.085938 201.617188 C 296.910156 201 297.429688 199.402344 298.789062 199.347656 C 299.730469 199.308594 300.621094 199.726562 301.574219 199.832031 C 302.628906 199.949219 307.28125 199.226562 306.011719 197.808594 C 305 196.679688 304.113281 197.085938 304.113281 195.132812 C 304.113281 192.90625 305.140625 192.519531 306.28125 190.839844 C 307.183594 189.632812 307.042969 187.703125 306.117188 186.5625 C 303.835938 183.753906 306.339844 182.609375 307.570312 180.191406 C 308.484375 178.394531 307.730469 178.535156 307.730469 176.800781 C 307.730469 171.617188 312.390625 169.582031 309.019531 163.488281 C 309.019531 162.074219 308.84375 161.425781 307.9375 160.753906 "/><path style=" stroke:none;fill-rule:evenodd;fill:#283b7e;fill-opacity:1;" d="M 200.390625 160.753906 L 200.390625 89.097656 C 200.015625 89.550781 199.601562 90.136719 199.144531 90.867188 C 197.066406 90.625 192.214844 91.351562 192.214844 89.414062 C 192.214844 88.046875 190.039062 87.375 189.097656 86.796875 L 189.746094 44.164062 L 131.988281 44.164062 L 131.988281 145.25 L 65.21875 145.25 C 64.46875 145.53125 64.265625 146.292969 64.265625 147.28125 C 64.265625 148.636719 65.4375 147.921875 65.4375 149.144531 C 65.4375 151.886719 70.722656 151.800781 70.800781 152.832031 C 70.992188 155.363281 71.445312 156.1875 73.421875 157.695312 C 74.183594 157.789062 75.289062 157.921875 76.003906 158.179688 C 76.886719 158.5 76.902344 159.714844 77.699219 160.207031 C 79.269531 161.175781 80.535156 164.242188 82.175781 164.582031 C 84.644531 165.09375 83.363281 165.78125 84.476562 167.460938 C 85.136719 168.460938 86.085938 168.722656 87.191406 169.195312 C 87.628906 169.339844 88.246094 169.976562 88.351562 170.449219 C 88.53125 171.25 89.238281 171.710938 89.957031 171.980469 C 90.492188 172.179688 90.925781 172.558594 91.351562 172.941406 C 93.679688 172.941406 92.996094 174.609375 94.296875 175.414062 C 96.488281 176.765625 96.675781 177.167969 96.820312 179.808594 C 96.820312 182.960938 101.625 182.71875 100.003906 186.496094 C 99.917969 187.199219 99.308594 187.175781 99.421875 188.054688 C 99.582031 189.328125 100.03125 189.050781 100.691406 190 C 101.472656 191.121094 101.050781 191.996094 101.277344 193.242188 C 102.75 193.734375 102.304688 195.742188 103.273438 196.402344 C 104.363281 197.148438 104.914062 198.269531 105.875 199.015625 C 106.703125 199.660156 107.449219 200.074219 108.355469 200.726562 C 110.386719 202.757812 113.734375 205.226562 116.382812 206.195312 C 117.269531 206.519531 118.132812 206.53125 118.804688 207.328125 C 120.226562 209.023438 119.886719 209.03125 122.636719 209.03125 C 123.410156 209.03125 123.636719 210.8125 124.175781 211.417969 C 125.5625 211.761719 130.707031 216.757812 130.707031 211.335938 C 130.707031 208.933594 135.527344 208.414062 133.929688 206.816406 C 132.070312 204.953125 135.699219 205.375 136.105469 204.316406 C 136.433594 203.46875 137.761719 199.347656 136.914062 198.667969 C 133.703125 196.097656 142.636719 196.765625 142.636719 194.714844 C 142.636719 192.257812 144.984375 193.921875 146.101562 194.070312 C 148.710938 194.410156 151.824219 194.085938 154.664062 194.039062 C 157.757812 195.070312 155.496094 196.15625 159.34375 194.445312 C 162.628906 192.984375 163.074219 195.554688 163.941406 198.375 C 164.289062 199.507812 165.8125 199.113281 166.925781 199.386719 C 168.066406 199.667969 170.507812 202.917969 171.414062 203.832031 C 171.917969 204 173.921875 208.433594 174.960938 209.15625 C 177.328125 210.804688 177.21875 210.757812 177.21875 214 C 177.21875 219.640625 182.054688 219.808594 182.054688 224.164062 C 182.054688 227.410156 182.734375 231.308594 186.570312 231.75 C 189.371094 232.074219 191.9375 239.722656 193.710938 242.78125 C 194.382812 242.78125 198.054688 245.78125 198.46875 246.429688 C 200.195312 249.117188 198.148438 248.535156 198.148438 250.644531 C 198.148438 252.15625 199.222656 252.828125 199.871094 254.101562 C 199.957031 254.128906 200.152344 254.601562 200.390625 255.277344 Z M 200.390625 160.753906 "/><path style=" stroke:none;fill-rule:evenodd;fill:#ffffff;fill-opacity:1;" d="M 202.234375 87.785156 C 201.742188 87.800781 201.140625 88.191406 200.390625 89.097656 L 200.390625 160.753906 L 307.9375 160.753906 C 307.898438 160.722656 307.855469 160.695312 307.8125 160.664062 C 307.210938 160.246094 308.054688 158.257812 308.054688 157.597656 C 308.054688 155.140625 306.441406 154.386719 306.441406 151.707031 C 306.441406 150.769531 306.671875 148.175781 306.199219 147.59375 C 304.398438 145.375 302.601562 147.308594 301.039062 143.476562 L 301.472656 110.015625 C 300.285156 108.421875 289.65625 108.144531 289.59375 105.679688 C 289.53125 103.308594 285.53125 104.691406 283.984375 104.171875 C 281.90625 103.46875 282.476562 102.085938 281.121094 100.726562 C 278.050781 97.640625 277.808594 104.121094 274.425781 102.265625 C 272.253906 101.074219 272.726562 100.414062 269.910156 101.132812 C 269.566406 101.132812 267.421875 102.660156 266.964844 102.953125 C 266.058594 103.535156 266.035156 102.804688 265.1875 102.429688 C 262.425781 101.191406 263.21875 103.398438 261.277344 103.523438 C 259.9375 103.609375 259.570312 104.742188 258.476562 105.554688 C 257.0625 106.613281 256.128906 105.273438 255.492188 104.34375 C 254.292969 102.585938 255.472656 100.789062 252.914062 101.921875 C 251.710938 102.453125 249.851562 103.398438 249.851562 101.597656 C 249.851562 100.527344 245.867188 102.171875 242.878906 102.574219 C 241.621094 102.746094 240.355469 101.101562 239.9375 101.519531 C 238.257812 103.199219 238.101562 100.90625 237.195312 100.550781 C 234.652344 99.546875 236.523438 98.378906 232.519531 99.90625 C 228.003906 101.625 228.636719 98.695312 225.910156 97.644531 C 223.507812 96.722656 223.019531 92.652344 218.652344 95.386719 C 218.355469 95.570312 216.347656 99.800781 215.914062 98.128906 C 215.542969 96.707031 214.332031 94.417969 212.851562 94.417969 C 208.40625 94.417969 205.496094 95.21875 204.46875 91.511719 C 203.90625 89.496094 203.324219 87.742188 202.234375 87.785156 Z M 164.253906 133.792969 L 158.007812 153.160156 L 137.679688 153.121094 L 154.148438 165.050781 L 147.828125 184.394531 L 164.253906 172.398438 L 180.679688 184.394531 L 174.359375 165.050781 L 190.832031 153.121094 L 170.5 153.160156 Z M 164.253906 133.792969 "/><g clip-rule="nonzero" clip-path="url(#9375270cbd)"><path style=" stroke:none;fill-rule:nonzero;fill:#2f526b;fill-opacity:1;" d="M 222.484375 74.714844 L 218.792969 89.738281 L 222.484375 93.234375 L 226.164062 89.738281 Z M 195.644531 163.613281 C 195.664062 163.503906 195.695312 163.386719 195.726562 163.277344 L 220.101562 63.902344 C 220.164062 63.636719 220.269531 63.386719 220.414062 63.152344 C 220.558594 62.917969 220.738281 62.714844 220.953125 62.542969 C 221.167969 62.371094 221.40625 62.238281 221.664062 62.148438 C 221.921875 62.054688 222.1875 62.007812 222.464844 62.003906 C 222.738281 62.003906 223.003906 62.046875 223.265625 62.132812 C 223.527344 62.222656 223.765625 62.351562 223.980469 62.519531 C 224.199219 62.6875 224.382812 62.886719 224.53125 63.117188 C 224.683594 63.347656 224.789062 63.597656 224.855469 63.863281 L 249.242188 163.277344 C 249.273438 163.386719 249.300781 163.507812 249.320312 163.617188 L 262.417969 217.011719 C 262.496094 217.269531 262.535156 217.53125 262.527344 217.796875 C 262.523438 218.0625 262.472656 218.320312 262.382812 218.574219 C 262.292969 218.824219 262.164062 219.054688 262 219.265625 C 261.835938 219.472656 261.640625 219.652344 261.417969 219.796875 C 261.195312 219.945312 260.953125 220.050781 260.695312 220.117188 C 260.4375 220.183594 260.175781 220.210938 259.910156 220.191406 C 259.644531 220.171875 259.386719 220.113281 259.140625 220.011719 C 258.894531 219.910156 258.671875 219.773438 258.46875 219.597656 L 227.078125 192.253906 L 227.066406 192.242188 L 222.484375 188.246094 L 186.496094 219.597656 L 186.488281 219.597656 C 186.1875 219.859375 185.847656 220.035156 185.460938 220.128906 C 185.074219 220.222656 184.691406 220.21875 184.304688 220.125 C 183.988281 220.046875 183.703125 219.910156 183.441406 219.71875 C 183.179688 219.527344 182.964844 219.292969 182.796875 219.015625 C 182.628906 218.738281 182.519531 218.4375 182.46875 218.117188 C 182.417969 217.796875 182.433594 217.476562 182.507812 217.164062 Z M 205.019531 161.578125 L 240.003906 161.578125 L 222.511719 146.285156 Z M 240.003906 166.484375 L 204.960938 166.484375 L 222.484375 181.75 Z M 213.078125 126.699219 L 231.828125 126.699219 L 222.453125 118.503906 Z M 231.871094 131.609375 L 213.148438 131.609375 L 222.511719 139.796875 Z M 217.460938 95.191406 L 216.570312 98.839844 L 218.929688 96.59375 Z M 215.84375 106.242188 L 222.453125 112.015625 L 229.089844 106.210938 L 222.484375 99.953125 Z M 228.394531 98.839844 L 227.503906 95.195312 L 226.023438 96.597656 Z M 226.164062 115.265625 L 234.132812 122.230469 L 231.324219 110.753906 Z M 210.84375 122.160156 L 218.742188 115.265625 L 213.632812 110.792969 Z M 226.222656 143.046875 L 242.792969 157.523438 L 236.9375 133.675781 Z M 202.152344 157.59375 L 218.792969 143.046875 L 208.027344 133.636719 Z M 199.535156 168.265625 L 189.097656 210.824219 L 209.933594 192.679688 L 209.941406 192.667969 L 218.753906 185 Z M 226.214844 185 L 255.859375 210.824219 L 245.421875 168.265625 Z M 226.214844 185 "/></g><g clip-rule="nonzero" clip-path="url(#6d38fbbe51)"><path style=" stroke:none;fill-rule:nonzero;fill:#ffba57;fill-opacity:1;" d="M 184.890625 41.503906 C 185.109375 41.269531 185.371094 41.082031 185.664062 40.945312 C 185.960938 40.8125 186.269531 40.738281 186.59375 40.730469 C 186.917969 40.71875 187.234375 40.769531 187.535156 40.886719 C 187.839844 41 188.109375 41.167969 188.347656 41.390625 C 188.582031 41.613281 188.769531 41.875 188.902344 42.171875 C 189.035156 42.46875 189.105469 42.777344 189.113281 43.101562 C 189.121094 43.429688 189.070312 43.742188 188.953125 44.046875 C 188.835938 44.347656 188.664062 44.617188 188.441406 44.855469 C 185.261719 48.226562 182.789062 52.054688 181.023438 56.339844 C 180.183594 58.398438 179.550781 60.515625 179.125 62.691406 C 178.695312 64.871094 178.480469 67.070312 178.480469 69.292969 C 178.480469 71.511719 178.695312 73.714844 179.125 75.890625 C 179.550781 78.070312 180.183594 80.1875 181.023438 82.246094 C 182.785156 86.535156 185.257812 90.363281 188.441406 93.730469 C 188.667969 93.96875 188.835938 94.238281 188.953125 94.539062 C 189.070312 94.84375 189.121094 95.15625 189.113281 95.484375 C 189.105469 95.808594 189.035156 96.117188 188.902344 96.414062 C 188.769531 96.710938 188.582031 96.972656 188.347656 97.195312 C 188.109375 97.417969 187.839844 97.585938 187.539062 97.699219 C 187.234375 97.816406 186.917969 97.867188 186.59375 97.855469 C 186.269531 97.847656 185.960938 97.773438 185.664062 97.640625 C 185.371094 97.503906 185.109375 97.316406 184.890625 97.078125 C 181.289062 93.269531 178.484375 88.941406 176.488281 84.09375 C 175.527344 81.746094 174.800781 79.328125 174.3125 76.835938 C 173.824219 74.347656 173.578125 71.835938 173.578125 69.296875 C 173.578125 66.761719 173.824219 64.246094 174.3125 61.757812 C 174.800781 59.269531 175.527344 56.851562 176.488281 54.503906 C 178.484375 49.648438 181.289062 45.316406 184.890625 41.503906 Z M 237.832031 58.476562 C 237.605469 58.242188 237.4375 57.972656 237.320312 57.667969 C 237.203125 57.363281 237.148438 57.046875 237.15625 56.722656 C 237.164062 56.394531 237.238281 56.082031 237.371094 55.785156 C 237.503906 55.488281 237.6875 55.226562 237.925781 55.003906 C 238.164062 54.78125 238.433594 54.613281 238.738281 54.496094 C 239.046875 54.382812 239.359375 54.332031 239.6875 54.34375 C 240.011719 54.355469 240.324219 54.429688 240.617188 54.566406 C 240.914062 54.699219 241.171875 54.890625 241.394531 55.128906 C 243.226562 57.066406 244.648438 59.269531 245.660156 61.738281 C 246.152344 62.933594 246.523438 64.171875 246.773438 65.441406 C 247.023438 66.714844 247.148438 67.996094 247.148438 69.292969 C 247.148438 70.589844 247.023438 71.871094 246.773438 73.144531 C 246.523438 74.414062 246.152344 75.652344 245.660156 76.851562 C 244.648438 79.320312 243.226562 81.523438 241.394531 83.457031 C 241.171875 83.699219 240.914062 83.886719 240.617188 84.023438 C 240.324219 84.15625 240.011719 84.230469 239.6875 84.242188 C 239.359375 84.253906 239.046875 84.203125 238.738281 84.089844 C 238.433594 83.976562 238.164062 83.804688 237.925781 83.582031 C 237.6875 83.359375 237.503906 83.097656 237.371094 82.800781 C 237.238281 82.503906 237.164062 82.191406 237.15625 81.867188 C 237.148438 81.539062 237.203125 81.222656 237.320312 80.917969 C 237.4375 80.613281 237.605469 80.34375 237.832031 80.109375 C 239.242188 78.613281 240.339844 76.914062 241.125 75.011719 C 241.875 73.179688 242.246094 71.273438 242.246094 69.292969 C 242.246094 67.3125 241.875 65.40625 241.125 63.574219 C 240.339844 61.675781 239.242188 59.976562 237.832031 58.476562 Z M 247.175781 51.671875 C 246.957031 51.433594 246.785156 51.164062 246.671875 50.859375 C 246.558594 50.558594 246.503906 50.242188 246.515625 49.917969 C 246.523438 49.59375 246.597656 49.285156 246.730469 48.988281 C 246.863281 48.691406 247.046875 48.433594 247.28125 48.210938 C 247.519531 47.988281 247.789062 47.816406 248.089844 47.703125 C 248.394531 47.585938 248.707031 47.535156 249.03125 47.542969 C 249.355469 47.554688 249.667969 47.625 249.960938 47.757812 C 250.257812 47.890625 250.515625 48.074219 250.738281 48.3125 C 253.453125 51.191406 255.566406 54.460938 257.070312 58.121094 C 257.796875 59.894531 258.347656 61.71875 258.714844 63.597656 C 259.085938 65.480469 259.273438 67.378906 259.273438 69.292969 C 259.273438 71.210938 259.085938 73.109375 258.714844 74.988281 C 258.347656 76.867188 257.796875 78.695312 257.070312 80.46875 C 255.566406 84.128906 253.457031 87.398438 250.738281 90.273438 C 250.519531 90.511719 250.257812 90.695312 249.960938 90.828125 C 249.667969 90.964844 249.355469 91.035156 249.03125 91.042969 C 248.707031 91.054688 248.394531 91 248.089844 90.886719 C 247.789062 90.769531 247.519531 90.601562 247.28125 90.378906 C 247.046875 90.15625 246.863281 89.898438 246.726562 89.601562 C 246.59375 89.304688 246.523438 88.996094 246.515625 88.667969 C 246.503906 88.34375 246.558594 88.03125 246.671875 87.726562 C 246.785156 87.421875 246.957031 87.152344 247.179688 86.917969 C 249.476562 84.484375 251.261719 81.722656 252.535156 78.628906 C 253.140625 77.148438 253.597656 75.621094 253.90625 74.050781 C 254.21875 72.480469 254.371094 70.894531 254.371094 69.292969 C 254.371094 67.695312 254.21875 66.109375 253.90625 64.535156 C 253.597656 62.964844 253.140625 61.441406 252.535156 59.960938 C 251.261719 56.863281 249.476562 54.101562 247.179688 51.671875 Z M 256.511719 44.855469 C 256.292969 44.617188 256.125 44.347656 256.011719 44.042969 C 255.894531 43.742188 255.84375 43.425781 255.855469 43.101562 C 255.863281 42.777344 255.9375 42.46875 256.070312 42.171875 C 256.203125 41.878906 256.386719 41.617188 256.625 41.398438 C 256.859375 41.175781 257.128906 41.007812 257.433594 40.890625 C 257.734375 40.777344 258.050781 40.726562 258.371094 40.734375 C 258.695312 40.746094 259.003906 40.816406 259.300781 40.949219 C 259.597656 41.085938 259.855469 41.269531 260.078125 41.503906 C 263.679688 45.316406 266.480469 49.652344 268.480469 54.503906 C 269.441406 56.851562 270.164062 59.269531 270.652344 61.757812 C 271.140625 64.246094 271.386719 66.761719 271.386719 69.296875 C 271.386719 71.835938 271.140625 74.347656 270.652344 76.835938 C 270.164062 79.328125 269.441406 81.746094 268.480469 84.09375 C 266.480469 88.941406 263.679688 93.273438 260.078125 97.082031 C 259.855469 97.316406 259.597656 97.503906 259.300781 97.636719 C 259.003906 97.769531 258.695312 97.84375 258.371094 97.855469 C 258.046875 97.863281 257.734375 97.8125 257.429688 97.699219 C 257.128906 97.582031 256.859375 97.414062 256.621094 97.191406 C 256.386719 96.96875 256.199219 96.710938 256.066406 96.414062 C 255.933594 96.121094 255.863281 95.808594 255.851562 95.484375 C 255.839844 95.160156 255.894531 94.847656 256.007812 94.542969 C 256.125 94.238281 256.292969 93.96875 256.515625 93.730469 C 259.699219 90.363281 262.171875 86.535156 263.933594 82.246094 C 264.777344 80.191406 265.410156 78.074219 265.839844 75.894531 C 266.269531 73.714844 266.484375 71.515625 266.484375 69.292969 C 266.484375 67.074219 266.269531 64.871094 265.839844 62.691406 C 265.410156 60.515625 264.777344 58.398438 263.933594 56.339844 C 262.167969 52.054688 259.691406 48.226562 256.515625 44.855469 Z M 203.574219 55.128906 C 203.792969 54.890625 204.050781 54.699219 204.347656 54.566406 C 204.644531 54.429688 204.953125 54.355469 205.28125 54.34375 C 205.605469 54.332031 205.921875 54.382812 206.226562 54.496094 C 206.53125 54.613281 206.800781 54.78125 207.039062 55.003906 C 207.277344 55.226562 207.464844 55.488281 207.597656 55.785156 C 207.730469 56.082031 207.800781 56.394531 207.808594 56.722656 C 207.820312 57.046875 207.765625 57.363281 207.648438 57.667969 C 207.53125 57.972656 207.359375 58.242188 207.132812 58.476562 C 205.722656 59.972656 204.625 61.671875 203.839844 63.574219 C 203.085938 65.40625 202.710938 67.3125 202.710938 69.292969 C 202.710938 71.273438 203.085938 73.179688 203.839844 75.011719 C 204.625 76.914062 205.722656 78.613281 207.132812 80.109375 C 207.359375 80.34375 207.53125 80.613281 207.648438 80.917969 C 207.765625 81.222656 207.820312 81.539062 207.808594 81.867188 C 207.800781 82.191406 207.730469 82.503906 207.597656 82.800781 C 207.464844 83.097656 207.277344 83.359375 207.039062 83.582031 C 206.800781 83.804688 206.53125 83.976562 206.226562 84.089844 C 205.921875 84.203125 205.605469 84.253906 205.28125 84.242188 C 204.953125 84.230469 204.644531 84.15625 204.347656 84.023438 C 204.050781 83.886719 203.792969 83.699219 203.574219 83.457031 C 201.738281 81.519531 200.3125 79.316406 199.296875 76.851562 C 198.3125 74.425781 197.816406 71.910156 197.816406 69.292969 C 197.816406 66.675781 198.3125 64.160156 199.296875 61.738281 C 200.316406 59.269531 201.742188 57.066406 203.574219 55.128906 Z M 194.226562 48.3125 C 194.453125 48.082031 194.710938 47.90625 195.003906 47.777344 C 195.296875 47.652344 195.605469 47.585938 195.925781 47.578125 C 196.246094 47.570312 196.554688 47.625 196.855469 47.742188 C 197.152344 47.855469 197.417969 48.023438 197.652344 48.246094 C 197.882812 48.464844 198.066406 48.71875 198.199219 49.011719 C 198.332031 49.304688 198.40625 49.609375 198.417969 49.929688 C 198.429688 50.25 198.382812 50.5625 198.273438 50.863281 C 198.164062 51.164062 198.003906 51.433594 197.789062 51.671875 C 195.492188 54.101562 193.707031 56.863281 192.429688 59.957031 C 191.824219 61.4375 191.367188 62.964844 191.058594 64.535156 C 190.75 66.105469 190.59375 67.691406 190.59375 69.292969 C 190.59375 70.894531 190.75 72.480469 191.058594 74.050781 C 191.367188 75.621094 191.824219 77.148438 192.429688 78.628906 C 193.707031 81.722656 195.492188 84.484375 197.789062 86.914062 C 198.011719 87.152344 198.179688 87.421875 198.292969 87.726562 C 198.410156 88.03125 198.460938 88.34375 198.449219 88.667969 C 198.441406 88.992188 198.371094 89.304688 198.238281 89.597656 C 198.101562 89.894531 197.917969 90.15625 197.683594 90.378906 C 197.445312 90.597656 197.175781 90.769531 196.875 90.882812 C 196.570312 91 196.257812 91.050781 195.933594 91.042969 C 195.609375 91.03125 195.300781 90.960938 195.003906 90.828125 C 194.707031 90.695312 194.449219 90.511719 194.226562 90.273438 C 191.511719 87.398438 189.402344 84.128906 187.898438 80.46875 C 187.167969 78.695312 186.621094 76.867188 186.25 74.988281 C 185.878906 73.109375 185.695312 71.210938 185.695312 69.292969 C 185.695312 67.375 185.878906 65.480469 186.25 63.597656 C 186.621094 61.71875 187.167969 59.890625 187.898438 58.121094 C 189.402344 54.457031 191.511719 51.191406 194.226562 48.3125 Z M 194.226562 48.3125 "/></g><path style=" stroke:none;fill-rule:evenodd;fill:#fa4655;fill-opacity:1;" d="M 222.484375 78.210938 C 228.046875 78.210938 232.582031 74.207031 232.582031 69.296875 C 232.582031 64.378906 228.050781 60.375 222.484375 60.375 C 216.917969 60.375 212.382812 64.378906 212.382812 69.296875 C 212.382812 74.207031 216.917969 78.210938 222.484375 78.210938 Z M 222.484375 78.210938 "/><path style=" stroke:none;fill-rule:evenodd;fill:#e13f4d;fill-opacity:1;" d="M 217.433594 69.296875 C 217.433594 65.144531 220.648438 61.648438 225.011719 60.664062 C 224.179688 60.46875 223.335938 60.375 222.484375 60.375 C 216.90625 60.375 212.382812 64.371094 212.382812 69.296875 C 212.382812 72.417969 214.199219 75.160156 216.945312 76.75 C 217.664062 77.167969 218.421875 77.496094 219.21875 77.734375 C 220.007812 77.96875 220.808594 78.121094 221.628906 78.179688 C 221.90625 78.203125 222.195312 78.210938 222.484375 78.210938 C 222.769531 78.210938 223.046875 78.203125 223.335938 78.179688 C 223.902344 78.140625 224.460938 78.054688 225.011719 77.933594 C 224.363281 77.785156 223.730469 77.582031 223.117188 77.316406 C 221.894531 76.785156 220.816406 76.046875 219.875 75.101562 C 219.082031 74.296875 218.464844 73.371094 218.027344 72.328125 C 217.628906 71.359375 217.433594 70.347656 217.433594 69.296875 Z M 217.433594 69.296875 "/><g style="fill:#283b7e;fill-opacity:1;"><g transform="translate(93.111327, 325.79863)"><path style="stroke:none" d="M 22.890625 -28.5625 L 22.890625 -23.8125 L 14.65625 -23.8125 L 14.65625 0 L 9.03125 0 L 9.03125 -23.8125 L 0.78125 -23.8125 L 0.78125 -28.5625 Z M 22.890625 -28.5625 "/></g></g><g style="fill:#283b7e;fill-opacity:1;"><g transform="translate(116.780889, 325.79863)"><path style="stroke:none" d="M 6.265625 0 L 0.484375 0 L 8.953125 -14.6875 L 0.90625 -28.5625 L 6.890625 -28.5625 L 12.8125 -18.328125 L 13.296875 -18.328125 L 19.3125 -28.5625 L 25.015625 -28.5625 L 16.96875 -14.6875 L 25.4375 0 L 19.453125 0 L 13.109375 -11.015625 L 12.625 -11.015625 Z M 6.265625 0 "/></g></g><g style="fill:#283b7e;fill-opacity:1;"><g transform="translate(140.157425, 325.79863)"><path style="stroke:none" d="M 13.671875 -11.484375 L 1.703125 -11.484375 L 1.703125 -16.25 L 13.671875 -16.25 Z M 13.671875 -11.484375 "/></g></g><g style="fill:#283b7e;fill-opacity:1;"><g transform="translate(155.976214, 325.79863)"><path style="stroke:none" d="M 15.609375 0.40625 C 12.972656 0.40625 10.648438 -0.140625 8.640625 -1.234375 C 6.640625 -2.328125 5.070312 -3.96875 3.9375 -6.15625 C 2.8125 -8.351562 2.25 -11.0625 2.25 -14.28125 C 2.25 -17.5 2.8125 -20.203125 3.9375 -22.390625 C 5.070312 -24.585938 6.640625 -26.234375 8.640625 -27.328125 C 10.648438 -28.421875 12.972656 -28.96875 15.609375 -28.96875 C 18.359375 -28.96875 20.691406 -28.429688 22.609375 -27.359375 C 24.523438 -26.285156 25.894531 -24.644531 26.71875 -22.4375 L 22.59375 -19.921875 L 22.109375 -19.9375 C 21.492188 -21.425781 20.660156 -22.492188 19.609375 -23.140625 C 18.566406 -23.785156 17.234375 -24.109375 15.609375 -24.109375 C 13.234375 -24.109375 11.378906 -23.320312 10.046875 -21.75 C 8.722656 -20.175781 8.0625 -17.6875 8.0625 -14.28125 C 8.0625 -10.882812 8.722656 -8.398438 10.046875 -6.828125 C 11.378906 -5.253906 13.234375 -4.46875 15.609375 -4.46875 C 19.316406 -4.46875 21.585938 -6.273438 22.421875 -9.890625 L 22.90625 -9.890625 L 27.078125 -7.71875 C 26.296875 -5.007812 24.957031 -2.976562 23.0625 -1.625 C 21.175781 -0.269531 18.691406 0.40625 15.609375 0.40625 Z M 15.609375 0.40625 "/></g></g><g style="fill:#283b7e;fill-opacity:1;"><g transform="translate(183.649274, 325.79863)"><path style="stroke:none" d="M 15.5625 0.40625 C 12.945312 0.40625 10.640625 -0.125 8.640625 -1.1875 C 6.640625 -2.257812 5.070312 -3.890625 3.9375 -6.078125 C 2.8125 -8.273438 2.25 -11.007812 2.25 -14.28125 C 2.25 -17.550781 2.8125 -20.28125 3.9375 -22.46875 C 5.070312 -24.664062 6.640625 -26.296875 8.640625 -27.359375 C 10.640625 -28.429688 12.945312 -28.96875 15.5625 -28.96875 C 18.1875 -28.96875 20.492188 -28.4375 22.484375 -27.375 C 24.472656 -26.3125 26.03125 -24.679688 27.15625 -22.484375 C 28.28125 -20.285156 28.84375 -17.550781 28.84375 -14.28125 C 28.84375 -11.007812 28.28125 -8.273438 27.15625 -6.078125 C 26.03125 -3.878906 24.472656 -2.25 22.484375 -1.1875 C 20.492188 -0.125 18.1875 0.40625 15.5625 0.40625 Z M 15.5625 -4.5 C 17.988281 -4.5 19.835938 -5.273438 21.109375 -6.828125 C 22.390625 -8.378906 23.03125 -10.863281 23.03125 -14.28125 C 23.03125 -17.6875 22.390625 -20.171875 21.109375 -21.734375 C 19.835938 -23.296875 17.988281 -24.078125 15.5625 -24.078125 C 13.132812 -24.078125 11.273438 -23.296875 9.984375 -21.734375 C 8.703125 -20.171875 8.0625 -17.6875 8.0625 -14.28125 C 8.0625 -10.863281 8.703125 -8.378906 9.984375 -6.828125 C 11.273438 -5.273438 13.132812 -4.5 15.5625 -4.5 Z M 15.5625 -4.5 "/></g></g><g style="fill:#283b7e;fill-opacity:1;"><g transform="translate(214.75952, 325.79863)"><path style="stroke:none" d="M 8.890625 0 L 3.71875 0 L 3.71875 -28.5625 L 11.09375 -28.5625 L 18.328125 -7.5625 L 18.734375 -7.5625 L 25.921875 -28.5625 L 33.125 -28.5625 L 33.125 0 L 27.78125 0 L 27.78125 -18.875 L 27.28125 -18.953125 L 20.6875 0 L 15.984375 0 L 9.375 -18.953125 L 8.890625 -18.875 Z M 8.890625 0 "/></g></g><g style="fill:#283b7e;fill-opacity:1;"><g transform="translate(251.611393, 325.79863)"><path style="stroke:none" d="M 15.140625 0.40625 C 11.203125 0.40625 8.28125 -0.523438 6.375 -2.390625 C 4.476562 -4.265625 3.53125 -7.035156 3.53125 -10.703125 L 3.53125 -28.5625 L 9.0625 -28.5625 L 9.0625 -10.75 C 9.0625 -8.664062 9.5625 -7.101562 10.5625 -6.0625 C 11.570312 -5.019531 13.097656 -4.5 15.140625 -4.5 C 19.191406 -4.5 21.21875 -6.582031 21.21875 -10.75 L 21.21875 -28.5625 L 26.734375 -28.5625 L 26.734375 -10.703125 C 26.734375 -7.035156 25.78125 -4.265625 23.875 -2.390625 C 21.976562 -0.523438 19.066406 0.40625 15.140625 0.40625 Z M 15.140625 0.40625 "/></g></g></g></svg>